<svg id="Réteg_1" data-name="Réteg 1" xmlns="http://www.w3.org/2000/svg" viewBox="0 0 600 200"><defs><style>.cls-1,.cls-6{fill:#ccc;}.cls-1,.cls-2,.cls-3{fill-rule:evenodd;}.cls-2,.cls-4{fill:#a52b23;}.cls-3{fill:#8b8989;}.cls-5{fill:#fff;}</style></defs><title>logo</title><path class="cls-1" d="M23.54,85.46h42.6V42.87H23.54Zm-9.37,9.37V33.5H75.51V94.84Z"/><path class="cls-2" d="M93,85.46h42.6V42.87H93Zm-9.37,9.37V33.5H145V94.84Z"/><path class="cls-3" d="M23.54,155.13h42.6v-42.6H23.54Zm-9.37,9.37V103.16H75.51V164.5Z"/><path class="cls-3" d="M93,155.13h42.6v-42.6H93Zm-9.37,9.37V103.16H145V164.5Z"/><path class="cls-4" d="M172,95.43h-4V61.18h4v4.76c3.17-3.37,6.28-5.69,11-5.69,4.17,0,8,1.32,10.45,4.89,1.65,2.45,1.72,5,1.72,7.87V95.43h-4V73.08c0-6.15-2.51-9.26-8.86-9.26a10,10,0,0,0-9.52,6.68A17.67,17.67,0,0,0,172,77Z"/><path class="cls-4" d="M208.61,79.23c-.07,7.41,3.9,13.55,11.5,13.55,5.16,0,9.19-2.84,10.38-7.87h4.43c-2,6.48-6.08,11.44-14.81,11.44-11,0-15.74-7.8-15.74-17.92s6-18.18,15.74-18.18c9.39,0,15.14,6.68,15.07,19ZM231,75.93c0-6.68-3.7-12.1-10.84-12.1s-10.71,5.62-11.5,12.1Z"/><path class="cls-4" d="M256.28,95.56a19.18,19.18,0,0,1-4.56.79c-3.9,0-6.08-1.72-6.08-6.81V64.49h-4.83V61.18h4.83V51.66h4v9.52H256v3.31H249.6V88c0,3.37.13,4.83,3.44,4.83a13.67,13.67,0,0,0,3.24-.46Z"/><path class="cls-5" d="M260.18,95.43l18.71-47.6H284l18.25,47.6H297.6l-5.49-14.94H270.43l-5.62,14.94ZM272,76.65H290.6l-9.32-25Z"/><path class="cls-5" d="M333.64,72c-1.39-5.09-4.89-8.13-10.18-8.13-8.13,0-11.5,7.4-11.5,14.55s3.31,14.41,11.5,14.41c5.88,0,9.59-3.5,10.51-9.19h4.23c-1.39,7.6-6.15,12.76-14.74,12.76-10.91,0-15.74-7.87-15.74-18,0-9.52,5.49-18.12,15.74-18.12,7.87,0,13,3.77,14.21,11.7Z"/><path class="cls-5" d="M363.2,75.46a19.9,19.9,0,0,0,5.22-1.12c1.32-.59,1.45-2.38,1.45-3.57,0-4-2.38-6.94-8.53-6.94-5.49,0-9.26,1.79-10,7.74h-4c.6-8.07,6.61-11.31,14.08-11.31,6.94,0,12.43,2.71,12.43,10.64V89.55c0,3.11.79,3.83,4.17,2.64V95.3a11,11,0,0,1-3.11.66,7.77,7.77,0,0,1-1.79-.2c-2.64-.4-3.11-2.71-3.17-5.09a16.8,16.8,0,0,1-12.76,5.69c-6,0-11.44-3.24-11.44-9.85,0-5.75,4-9.26,12-10.31Zm6.68,2c-3.37,1.39-6.81,1.65-10.25,1.92-6,.46-9.65,2.65-9.65,7.27,0,4.17,3.64,6.15,7.4,6.15,6.28,0,12.5-3,12.5-10Z"/><path class="cls-5" d="M412,47.83h4v47.6h-4v-6h-.13c-2.31,4.5-7.54,6.94-11.9,6.94-11,0-15.47-7.87-15.47-18,0-9.59,4.83-18.12,15.27-18.12,4.83,0,9.72,2.25,12.23,6.41Zm-11.57,16c-8.2,0-12,6.94-11.7,15.54.07,8.6,5,13.42,11.7,13.42,7.47,0,11.57-6.35,11.57-14.61C412,70.44,407.63,63.83,400.42,63.83Z"/><path class="cls-5" d="M429.71,79.23c-.07,7.41,3.9,13.55,11.5,13.55,5.16,0,9.19-2.84,10.38-7.87H456c-2,6.48-6.08,11.44-14.81,11.44-11,0-15.74-7.8-15.74-17.92s6-18.18,15.74-18.18c9.39,0,15.14,6.68,15.07,19Zm22.35-3.31c0-6.68-3.7-12.1-10.84-12.1s-10.71,5.62-11.5,12.1Z"/><path class="cls-5" d="M468.79,95.43h-4V61.18h4v5.16h.13a11.72,11.72,0,0,1,10.58-6.08c6.35,0,8.6,3,10,6.61a11.86,11.86,0,0,1,11.17-6.61c9.32,0,10.64,6.68,10.64,13.55V95.43h-4V71.76c0-4.89-1.72-7.93-7.34-7.93a9.52,9.52,0,0,0-7.74,3.9c-1.72,2.25-2.25,6.41-2.25,9.26V95.43h-4V71.76c0-4.89-1.72-7.93-7.34-7.93a9.52,9.52,0,0,0-7.74,3.9c-1.72,2.25-2.25,6.41-2.25,9.26Z"/><path class="cls-5" d="M522.15,53.71V47.83h4.36v5.88Zm.2,41.72V61.18h4V95.43Z"/><path class="cls-5" d="M553.48,75.46a19.9,19.9,0,0,0,5.22-1.12c1.32-.59,1.45-2.38,1.45-3.57,0-4-2.38-6.94-8.53-6.94-5.49,0-9.26,1.79-10,7.74h-4c.6-8.07,6.61-11.31,14.08-11.31,6.94,0,12.43,2.71,12.43,10.64V89.55c0,3.11.79,3.83,4.17,2.64V95.3a11,11,0,0,1-3.11.66,7.77,7.77,0,0,1-1.79-.2c-2.64-.4-3.11-2.71-3.17-5.09a16.8,16.8,0,0,1-12.76,5.69c-6,0-11.44-3.24-11.44-9.85,0-5.75,4-9.26,12-10.31Zm6.68,2c-3.37,1.39-6.81,1.65-10.25,1.92-6,.46-9.65,2.65-9.65,7.27,0,4.17,3.64,6.15,7.4,6.15,6.28,0,12.5-3,12.5-10Z"/><path class="cls-6" d="M266.06,113.63h-6.9v-2.49H276v2.49H269v20.2h-3Z"/><path class="cls-6" d="M280.19,126.22c.07,4,2.63,5.66,5.59,5.66a10.71,10.71,0,0,0,4.51-.84l.5,2.12a13.2,13.2,0,0,1-5.42,1c-5,0-8-3.3-8-8.21s2.89-8.79,7.64-8.79c5.32,0,6.73,4.68,6.73,7.67a11.15,11.15,0,0,1-.1,1.38Zm8.68-2.12c0-1.88-.77-4.81-4.11-4.81-3,0-4.31,2.76-4.54,4.81Z"/><path class="cls-6" d="M295.58,122.62c0-1.92,0-3.57-.13-5.08H298l.1,3.2h.13a4.89,4.89,0,0,1,4.51-3.57,3.2,3.2,0,0,1,.84.1v2.79a4.44,4.44,0,0,0-1-.1c-2.09,0-3.57,1.58-4,3.8a8.33,8.33,0,0,0-.13,1.38v8.68h-2.93Z"/><path class="cls-6" d="M308.4,126.22c.07,4,2.63,5.66,5.59,5.66a10.71,10.71,0,0,0,4.51-.84l.5,2.12a13.2,13.2,0,0,1-5.42,1c-5,0-8-3.3-8-8.21s2.89-8.79,7.64-8.79c5.32,0,6.73,4.68,6.73,7.67a11.15,11.15,0,0,1-.1,1.38Zm8.68-2.12c0-1.88-.77-4.81-4.11-4.81-3,0-4.31,2.76-4.54,4.81Z"/><path class="cls-6" d="M323.78,121.95c0-1.68,0-3.06-.13-4.41h2.59l.13,2.63h.1a5.62,5.62,0,0,1,5.12-3,4.82,4.82,0,0,1,4.61,3.27h.07a6.71,6.71,0,0,1,1.82-2.12,5.56,5.56,0,0,1,3.6-1.14c2.15,0,5.35,1.41,5.35,7.07v9.59h-2.89v-9.22c0-3.13-1.14-5-3.53-5a3.83,3.83,0,0,0-3.5,2.69,4.88,4.88,0,0,0-.24,1.48v10.06H334v-9.76c0-2.59-1.14-4.48-3.4-4.48a4.42,4.42,0,0,0-3.9,4.41v9.83h-2.9Z"/><path class="cls-6" d="M355.59,112.86v4.68h4.24v2.26h-4.24v8.79c0,2,.57,3.16,2.22,3.16a6.58,6.58,0,0,0,1.72-.2l.13,2.22a7.25,7.25,0,0,1-2.63.4,4.11,4.11,0,0,1-3.2-1.25c-.84-.88-1.14-2.32-1.14-4.24v-8.89h-2.52v-2.26h2.52v-3.9Z"/><path class="cls-6" d="M362.93,130.8a7.76,7.76,0,0,0,3.9,1.18c2.15,0,3.16-1.08,3.16-2.42s-.84-2.19-3-3c-2.93-1-4.31-2.66-4.31-4.61,0-2.63,2.12-4.78,5.62-4.78a8.13,8.13,0,0,1,4,1l-.74,2.15a6.34,6.34,0,0,0-3.33-.94c-1.75,0-2.73,1-2.73,2.22s1,2,3.1,2.76c2.83,1.08,4.27,2.49,4.27,4.91,0,2.86-2.22,4.88-6.09,4.88a9.29,9.29,0,0,1-4.58-1.11Z"/><path class="cls-6" d="M390.9,109.93v19.69c0,1.45,0,3.1.13,4.21h-2.66l-.13-2.83h-.07a6,6,0,0,1-5.55,3.2c-3.94,0-7-3.33-7-8.28,0-5.42,3.33-8.75,7.3-8.75a5.45,5.45,0,0,1,4.91,2.49h.07v-9.73Zm-3,14.24a5.23,5.23,0,0,0-.13-1.25,4.36,4.36,0,0,0-4.27-3.43c-3.06,0-4.88,2.69-4.88,6.29,0,3.3,1.62,6,4.81,6a4.45,4.45,0,0,0,4.34-3.53,5.14,5.14,0,0,0,.13-1.28Z"/><path class="cls-6" d="M403.29,121.95c0-1.68,0-3.06-.13-4.41h2.59l.13,2.63h.1a5.62,5.62,0,0,1,5.12-3,4.82,4.82,0,0,1,4.61,3.27h.07a6.71,6.71,0,0,1,1.82-2.12,5.56,5.56,0,0,1,3.6-1.14c2.15,0,5.35,1.41,5.35,7.07v9.59h-2.89v-9.22c0-3.13-1.14-5-3.53-5a3.83,3.83,0,0,0-3.5,2.69,4.88,4.88,0,0,0-.24,1.48v10.06h-2.9v-9.76c0-2.59-1.14-4.48-3.4-4.48a4.42,4.42,0,0,0-3.9,4.41v9.83h-2.9Z"/><path class="cls-6" d="M433.18,126.22c.07,4,2.63,5.66,5.59,5.66a10.71,10.71,0,0,0,4.51-.84l.5,2.12a13.2,13.2,0,0,1-5.42,1c-5,0-8-3.3-8-8.21s2.89-8.79,7.64-8.79c5.32,0,6.73,4.68,6.73,7.67a11.15,11.15,0,0,1-.1,1.38Zm8.68-2.12c0-1.88-.77-4.81-4.11-4.81-3,0-4.31,2.76-4.54,4.81Z"/><path class="cls-6" d="M462.6,117.54c-.07,1.18-.13,2.49-.13,4.48v9.46c0,3.74-.74,6-2.32,7.44a8.64,8.64,0,0,1-5.92,2,10.51,10.51,0,0,1-5.42-1.35l.74-2.25a9.19,9.19,0,0,0,4.78,1.28c3,0,5.25-1.58,5.25-5.69V131h-.07a5.82,5.82,0,0,1-5.18,2.73c-4,0-6.93-3.43-6.93-7.94,0-5.52,3.6-8.65,7.34-8.65a5.42,5.42,0,0,1,5.08,2.83h.07l.13-2.46ZM459.54,124a4.21,4.21,0,0,0-.17-1.35,4.27,4.27,0,0,0-4.14-3.13c-2.83,0-4.85,2.39-4.85,6.16,0,3.2,1.62,5.86,4.81,5.86a4.33,4.33,0,0,0,4.11-3,5.16,5.16,0,0,0,.24-1.58Z"/><path class="cls-6" d="M483.87,133.83l-.24-2.05h-.1a6.07,6.07,0,0,1-5,2.42,4.64,4.64,0,0,1-5-4.68c0-3.94,3.5-6.09,9.8-6.06v-.34c0-1.35-.37-3.77-3.7-3.77a8.12,8.12,0,0,0-4.24,1.21l-.67-2a10.11,10.11,0,0,1,5.35-1.45c5,0,6.19,3.4,6.19,6.67v6.09a22.92,22.92,0,0,0,.27,3.9Zm-.44-8.31c-3.23-.07-6.9.51-6.9,3.67a2.62,2.62,0,0,0,2.79,2.83,4.05,4.05,0,0,0,3.94-2.73,3.09,3.09,0,0,0,.17-.94Z"/><path class="cls-6" d="M494.58,138.54a4.8,4.8,0,0,0,3.23-1.25c.81-.94,1.11-2.22,1.11-6.13V117.54h3v14.78c0,3.16-.5,5.22-2,6.7a7.52,7.52,0,0,1-5,1.85ZM502.22,113a1.74,1.74,0,0,1-1.85,1.82,1.77,1.77,0,0,1-1.82-1.82,1.81,1.81,0,0,1,1.89-1.85A1.75,1.75,0,0,1,502.22,113Z"/><path class="cls-6" d="M521.64,125.55c0,6-4.17,8.65-8.11,8.65-4.41,0-7.81-3.23-7.81-8.38,0-5.45,3.57-8.65,8.08-8.65C518.48,117.17,521.64,120.57,521.64,125.55Zm-12.93.17c0,3.57,2.05,6.26,4.95,6.26s4.95-2.66,4.95-6.33c0-2.76-1.38-6.26-4.88-6.26S508.71,122.62,508.71,125.72Zm.13-12.79a1.72,1.72,0,0,1,1.72-1.72,1.65,1.65,0,0,1,1.65,1.72,1.67,1.67,0,0,1-1.65,1.72A1.7,1.7,0,0,1,508.85,112.93Zm6.26,0a1.7,1.7,0,0,1,1.68-1.72,1.65,1.65,0,0,1,1.65,1.72,1.67,1.67,0,1,1-3.33,0Z"/><path class="cls-6" d="M526.69,117.54l3.2,9.16a41.9,41.9,0,0,1,1.31,4.17h.1c.37-1.35.84-2.69,1.38-4.17l3.16-9.16h3.1l-6.4,16.29h-2.83l-6.19-16.29Z"/><path class="cls-6" d="M556.65,125.55c0,6-4.17,8.65-8.11,8.65-4.41,0-7.81-3.23-7.81-8.38,0-5.45,3.57-8.65,8.08-8.65C553.48,117.17,556.65,120.57,556.65,125.55Zm-12.93.17c0,3.57,2.05,6.26,4.95,6.26s4.95-2.66,4.95-6.33c0-2.76-1.38-6.26-4.88-6.26S543.72,122.62,543.72,125.72Zm6.63-15.21-3.7,4.61H544.8l2.66-4.61Zm4.88,0-3.74,4.61h-1.85l2.66-4.61Z"/><path class="cls-6" d="M574.62,109.93v19.69c0,1.45,0,3.1.13,4.21H572.1L572,131h-.07a6,6,0,0,1-5.55,3.2c-3.94,0-7-3.33-7-8.28,0-5.42,3.33-8.75,7.3-8.75a5.45,5.45,0,0,1,4.91,2.49h.07v-9.73Zm-3,14.24a5.23,5.23,0,0,0-.13-1.25,4.36,4.36,0,0,0-4.27-3.43c-3.06,0-4.88,2.69-4.88,6.29,0,3.3,1.62,6,4.81,6a4.45,4.45,0,0,0,4.34-3.53,5.14,5.14,0,0,0,.13-1.28Z"/><path class="cls-6" d="M579.13,132.11a2,2,0,0,1,2-2.09,2.09,2.09,0,0,1,0,4.17A2,2,0,0,1,579.13,132.11Zm.84-4.81-.47-16.16h3.23l-.47,16.16Z"/></svg>